<mxfile host="app.diagrams.net" modified="2023-10-17T16:39:01.764Z" agent="Mozilla/5.0 (Windows NT 10.0; Win64; x64) AppleWebKit/537.36 (KHTML, like Gecko) Chrome/118.0.0.0 Safari/537.36" etag="TfbCLkeDb7G5Kqi29Tiy" version="22.0.4" type="google">
  <diagram name="Sayfa -1" id="T_zV6fT3o0dbteL5V3-V">
    <mxGraphModel grid="1" page="1" gridSize="10" guides="1" tooltips="1" connect="1" arrows="1" fold="1" pageScale="1" pageWidth="827" pageHeight="1169" math="0" shadow="0">
      <root>
        <mxCell id="0" />
        <mxCell id="1" parent="0" />
        <mxCell id="_Bt1e7NGgTeSZnLJxrLj-2" style="edgeStyle=orthogonalEdgeStyle;rounded=0;sketch=1;hachureGap=4;jiggle=2;curveFitting=1;orthogonalLoop=1;jettySize=auto;html=1;fontFamily=Architects Daughter;fontSource=https%3A%2F%2Ffonts.googleapis.com%2Fcss%3Ffamily%3DArchitects%2BDaughter;fontSize=16;" edge="1" parent="1" source="_Bt1e7NGgTeSZnLJxrLj-1">
          <mxGeometry relative="1" as="geometry">
            <mxPoint x="410" y="160" as="targetPoint" />
          </mxGeometry>
        </mxCell>
        <mxCell id="_Bt1e7NGgTeSZnLJxrLj-1" value="&lt;font data-font-src=&quot;https://fonts.googleapis.com/css?family=helvatika&quot; face=&quot;helvatika&quot;&gt;Başla&lt;/font&gt;" style="ellipse;whiteSpace=wrap;html=1;sketch=1;hachureGap=4;jiggle=2;curveFitting=1;fontFamily=Architects Daughter;fontSource=https%3A%2F%2Ffonts.googleapis.com%2Fcss%3Ffamily%3DArchitects%2BDaughter;fontSize=20;" vertex="1" parent="1">
          <mxGeometry x="350" y="30" width="120" height="80" as="geometry" />
        </mxCell>
        <mxCell id="_Bt1e7NGgTeSZnLJxrLj-5" style="edgeStyle=orthogonalEdgeStyle;rounded=0;sketch=1;hachureGap=4;jiggle=2;curveFitting=1;orthogonalLoop=1;jettySize=auto;html=1;entryX=0.5;entryY=0;entryDx=0;entryDy=0;fontFamily=Architects Daughter;fontSource=https%3A%2F%2Ffonts.googleapis.com%2Fcss%3Ffamily%3DArchitects%2BDaughter;fontSize=16;" edge="1" parent="1" source="_Bt1e7NGgTeSZnLJxrLj-3" target="_Bt1e7NGgTeSZnLJxrLj-4">
          <mxGeometry relative="1" as="geometry" />
        </mxCell>
        <mxCell id="_Bt1e7NGgTeSZnLJxrLj-3" value="&lt;font style=&quot;font-size: 12px;&quot; data-font-src=&quot;https://fonts.googleapis.com/css?family=helvatika&quot; face=&quot;helvatika&quot;&gt;&quot;Sayı gir&quot;,(10)&lt;/font&gt;" style="shape=parallelogram;perimeter=parallelogramPerimeter;whiteSpace=wrap;html=1;fixedSize=1;sketch=1;hachureGap=4;jiggle=2;curveFitting=1;fontFamily=Architects Daughter;fontSource=https%3A%2F%2Ffonts.googleapis.com%2Fcss%3Ffamily%3DArchitects%2BDaughter;fontSize=20;" vertex="1" parent="1">
          <mxGeometry x="350" y="160" width="120" height="60" as="geometry" />
        </mxCell>
        <mxCell id="_Bt1e7NGgTeSZnLJxrLj-7" style="edgeStyle=orthogonalEdgeStyle;rounded=0;sketch=1;hachureGap=4;jiggle=2;curveFitting=1;orthogonalLoop=1;jettySize=auto;html=1;entryX=0.5;entryY=0;entryDx=0;entryDy=0;fontFamily=Architects Daughter;fontSource=https%3A%2F%2Ffonts.googleapis.com%2Fcss%3Ffamily%3DArchitects%2BDaughter;fontSize=16;" edge="1" parent="1" source="_Bt1e7NGgTeSZnLJxrLj-4" target="_Bt1e7NGgTeSZnLJxrLj-6">
          <mxGeometry relative="1" as="geometry" />
        </mxCell>
        <mxCell id="_Bt1e7NGgTeSZnLJxrLj-4" value="&lt;font style=&quot;font-size: 12px;&quot; data-font-src=&quot;https://fonts.googleapis.com/css?family=helvatika&quot; face=&quot;helvatika&quot;&gt;Sayac=10&lt;br&gt;Sonuc=10&lt;/font&gt;" style="rounded=0;whiteSpace=wrap;html=1;sketch=1;hachureGap=4;jiggle=2;curveFitting=1;fontFamily=Architects Daughter;fontSource=https%3A%2F%2Ffonts.googleapis.com%2Fcss%3Ffamily%3DArchitects%2BDaughter;fontSize=20;" vertex="1" parent="1">
          <mxGeometry x="350" y="260" width="120" height="60" as="geometry" />
        </mxCell>
        <mxCell id="_Bt1e7NGgTeSZnLJxrLj-11" style="edgeStyle=orthogonalEdgeStyle;rounded=0;sketch=1;hachureGap=4;jiggle=2;curveFitting=1;orthogonalLoop=1;jettySize=auto;html=1;fontFamily=Architects Daughter;fontSource=https%3A%2F%2Ffonts.googleapis.com%2Fcss%3Ffamily%3DArchitects%2BDaughter;fontSize=16;" edge="1" parent="1" source="_Bt1e7NGgTeSZnLJxrLj-6" target="_Bt1e7NGgTeSZnLJxrLj-10">
          <mxGeometry relative="1" as="geometry" />
        </mxCell>
        <mxCell id="_Bt1e7NGgTeSZnLJxrLj-16" style="edgeStyle=orthogonalEdgeStyle;rounded=0;sketch=1;hachureGap=4;jiggle=2;curveFitting=1;orthogonalLoop=1;jettySize=auto;html=1;fontFamily=Architects Daughter;fontSource=https%3A%2F%2Ffonts.googleapis.com%2Fcss%3Ffamily%3DArchitects%2BDaughter;fontSize=16;" edge="1" parent="1" source="_Bt1e7NGgTeSZnLJxrLj-6">
          <mxGeometry relative="1" as="geometry">
            <mxPoint x="570" y="430" as="targetPoint" />
          </mxGeometry>
        </mxCell>
        <mxCell id="_Bt1e7NGgTeSZnLJxrLj-6" value="&lt;font data-font-src=&quot;https://fonts.googleapis.com/css?family=helvatika&quot; face=&quot;helvatika&quot; style=&quot;font-size: 12px;&quot;&gt;10&amp;lt;=10&lt;/font&gt;" style="rhombus;whiteSpace=wrap;html=1;sketch=1;hachureGap=4;jiggle=2;curveFitting=1;fontFamily=Architects Daughter;fontSource=https%3A%2F%2Ffonts.googleapis.com%2Fcss%3Ffamily%3DArchitects%2BDaughter;fontSize=20;" vertex="1" parent="1">
          <mxGeometry x="374" y="380" width="116" height="100" as="geometry" />
        </mxCell>
        <mxCell id="_Bt1e7NGgTeSZnLJxrLj-8" value="&lt;font data-font-src=&quot;https://fonts.googleapis.com/css?family=helvatika&quot; face=&quot;helvatika&quot;&gt;Hayır&lt;/font&gt;" style="text;html=1;strokeColor=none;fillColor=none;align=center;verticalAlign=middle;whiteSpace=wrap;rounded=0;fontSize=20;fontFamily=Architects Daughter;" vertex="1" parent="1">
          <mxGeometry x="340" y="470" width="60" height="30" as="geometry" />
        </mxCell>
        <mxCell id="_Bt1e7NGgTeSZnLJxrLj-14" style="edgeStyle=orthogonalEdgeStyle;rounded=0;sketch=1;hachureGap=4;jiggle=2;curveFitting=1;orthogonalLoop=1;jettySize=auto;html=1;entryX=0.5;entryY=0;entryDx=0;entryDy=0;fontFamily=Architects Daughter;fontSource=https%3A%2F%2Ffonts.googleapis.com%2Fcss%3Ffamily%3DArchitects%2BDaughter;fontSize=16;" edge="1" parent="1" source="_Bt1e7NGgTeSZnLJxrLj-10" target="_Bt1e7NGgTeSZnLJxrLj-12">
          <mxGeometry relative="1" as="geometry" />
        </mxCell>
        <mxCell id="_Bt1e7NGgTeSZnLJxrLj-10" value="&lt;font style=&quot;font-size: 12px;&quot; data-font-src=&quot;https://fonts.googleapis.com/css?family=helvatika&quot; face=&quot;helvatika&quot;&gt;&quot;11&quot;;Sonuc&lt;/font&gt;" style="shape=document;whiteSpace=wrap;html=1;boundedLbl=1;sketch=1;hachureGap=4;jiggle=2;curveFitting=1;fontFamily=Architects Daughter;fontSource=https%3A%2F%2Ffonts.googleapis.com%2Fcss%3Ffamily%3DArchitects%2BDaughter;fontSize=20;" vertex="1" parent="1">
          <mxGeometry x="372" y="520" width="120" height="80" as="geometry" />
        </mxCell>
        <mxCell id="_Bt1e7NGgTeSZnLJxrLj-12" value="&lt;font data-font-src=&quot;https://fonts.googleapis.com/css?family=helvatika&quot; face=&quot;helvatika&quot;&gt;Bitir&lt;/font&gt;" style="ellipse;whiteSpace=wrap;html=1;sketch=1;hachureGap=4;jiggle=2;curveFitting=1;fontFamily=Architects Daughter;fontSource=https%3A%2F%2Ffonts.googleapis.com%2Fcss%3Ffamily%3DArchitects%2BDaughter;fontSize=20;" vertex="1" parent="1">
          <mxGeometry x="380" y="650" width="120" height="80" as="geometry" />
        </mxCell>
        <mxCell id="_Bt1e7NGgTeSZnLJxrLj-15" value="&lt;font data-font-src=&quot;https://fonts.googleapis.com/css?family=helvatika&quot; face=&quot;helvatika&quot;&gt;Evet&lt;/font&gt;" style="text;html=1;strokeColor=none;fillColor=none;align=center;verticalAlign=middle;whiteSpace=wrap;rounded=0;fontSize=20;fontFamily=Architects Daughter;" vertex="1" parent="1">
          <mxGeometry x="492" y="390" width="60" height="30" as="geometry" />
        </mxCell>
        <mxCell id="_Bt1e7NGgTeSZnLJxrLj-18" style="edgeStyle=orthogonalEdgeStyle;rounded=0;sketch=1;hachureGap=4;jiggle=2;curveFitting=1;orthogonalLoop=1;jettySize=auto;html=1;fontFamily=Architects Daughter;fontSource=https%3A%2F%2Ffonts.googleapis.com%2Fcss%3Ffamily%3DArchitects%2BDaughter;fontSize=16;" edge="1" parent="1" source="_Bt1e7NGgTeSZnLJxrLj-17">
          <mxGeometry relative="1" as="geometry">
            <mxPoint x="630" y="520" as="targetPoint" />
          </mxGeometry>
        </mxCell>
        <mxCell id="_Bt1e7NGgTeSZnLJxrLj-17" value="&lt;font face=&quot;helvatika&quot;&gt;&lt;span style=&quot;font-size: 12px;&quot;&gt;10=10*10&lt;/span&gt;&lt;/font&gt;" style="rounded=0;whiteSpace=wrap;html=1;sketch=1;hachureGap=4;jiggle=2;curveFitting=1;fontFamily=Architects Daughter;fontSource=https%3A%2F%2Ffonts.googleapis.com%2Fcss%3Ffamily%3DArchitects%2BDaughter;fontSize=20;" vertex="1" parent="1">
          <mxGeometry x="570" y="400" width="120" height="60" as="geometry" />
        </mxCell>
        <mxCell id="_Bt1e7NGgTeSZnLJxrLj-20" style="edgeStyle=orthogonalEdgeStyle;rounded=0;sketch=1;hachureGap=4;jiggle=2;curveFitting=1;orthogonalLoop=1;jettySize=auto;html=1;fontFamily=Architects Daughter;fontSource=https%3A%2F%2Ffonts.googleapis.com%2Fcss%3Ffamily%3DArchitects%2BDaughter;fontSize=16;entryX=0.718;entryY=0.82;entryDx=0;entryDy=0;entryPerimeter=0;" edge="1" parent="1" source="_Bt1e7NGgTeSZnLJxrLj-19" target="_Bt1e7NGgTeSZnLJxrLj-6">
          <mxGeometry relative="1" as="geometry">
            <mxPoint x="500" y="460" as="targetPoint" />
            <Array as="points">
              <mxPoint x="501" y="550" />
              <mxPoint x="501" y="462" />
            </Array>
          </mxGeometry>
        </mxCell>
        <mxCell id="_Bt1e7NGgTeSZnLJxrLj-19" value="&lt;font style=&quot;font-size: 12px;&quot; data-font-src=&quot;https://fonts.googleapis.com/css?family=helvatika&quot; face=&quot;helvatika&quot;&gt;11&amp;lt;=10&lt;/font&gt;" style="rounded=0;whiteSpace=wrap;html=1;sketch=1;hachureGap=4;jiggle=2;curveFitting=1;fontFamily=Architects Daughter;fontSource=https%3A%2F%2Ffonts.googleapis.com%2Fcss%3Ffamily%3DArchitects%2BDaughter;fontSize=20;" vertex="1" parent="1">
          <mxGeometry x="570" y="520" width="120" height="60" as="geometry" />
        </mxCell>
      </root>
    </mxGraphModel>
  </diagram>
</mxfile>
